<svg width="218" height="104" viewBox="0 0 218 104" fill="none" xmlns="http://www.w3.org/2000/svg">
<g filter="url(#filter0_dii_359_8)">
<rect x="24" y="24" width="170" height="56" rx="28" fill="#EBF2F4" shape-rendering="crispEdges"/>
<path d="M79.14 36H84.66L88.94 52.76H89.02V36H92.94V64H88.42L83.14 43.56H83.06V64H79.14V36ZM96.2103 36H108.21V40H100.61V47.4H106.65V51.4H100.61V60H108.21V64H96.2103V36ZM114.7 49.68L109.86 36H114.5L117.46 45.04H117.54L120.58 36H124.74L119.9 49.68L124.98 64H120.34L117.14 54.24H117.06L113.78 64H109.62L114.7 49.68ZM130.51 40H125.91V36H139.51V40H134.91V64H130.51V40Z" fill="black"/>
</g>
<defs>
<filter id="filter0_dii_359_8" x="0" y="0" width="218" height="104" filterUnits="userSpaceOnUse" color-interpolation-filters="sRGB">
<feFlood flood-opacity="0" result="BackgroundImageFix"/>
<feColorMatrix in="SourceAlpha" type="matrix" values="0 0 0 0 0 0 0 0 0 0 0 0 0 0 0 0 0 0 127 0" result="hardAlpha"/>
<feOffset/>
<feGaussianBlur stdDeviation="12"/>
<feComposite in2="hardAlpha" operator="out"/>
<feColorMatrix type="matrix" values="0 0 0 0 0.858824 0 0 0 0 0.694118 0 0 0 0 0.694118 0 0 0 1 0"/>
<feBlend mode="normal" in2="BackgroundImageFix" result="effect1_dropShadow_359_8"/>
<feBlend mode="normal" in="SourceGraphic" in2="effect1_dropShadow_359_8" result="shape"/>
<feColorMatrix in="SourceAlpha" type="matrix" values="0 0 0 0 0 0 0 0 0 0 0 0 0 0 0 0 0 0 127 0" result="hardAlpha"/>
<feOffset dx="3" dy="3"/>
<feGaussianBlur stdDeviation="2.5"/>
<feComposite in2="hardAlpha" operator="arithmetic" k2="-1" k3="1"/>
<feColorMatrix type="matrix" values="0 0 0 0 0.909804 0 0 0 0 0.913725 0 0 0 0 0.941176 0 0 0 0.25 0"/>
<feBlend mode="normal" in2="shape" result="effect2_innerShadow_359_8"/>
<feColorMatrix in="SourceAlpha" type="matrix" values="0 0 0 0 0 0 0 0 0 0 0 0 0 0 0 0 0 0 127 0" result="hardAlpha"/>
<feOffset dx="-3" dy="-3"/>
<feGaussianBlur stdDeviation="2"/>
<feComposite in2="hardAlpha" operator="arithmetic" k2="-1" k3="1"/>
<feColorMatrix type="matrix" values="0 0 0 0 0 0 0 0 0 0 0 0 0 0 0 0 0 0 0.12 0"/>
<feBlend mode="normal" in2="effect2_innerShadow_359_8" result="effect3_innerShadow_359_8"/>
</filter>
</defs>
</svg>
