<svg width="149" height="46" viewBox="0 0 149 46" fill="none" xmlns="http://www.w3.org/2000/svg">
<rect x="0.5" y="0.5" width="148" height="45" rx="22.5" fill="#EBF2F4" fill-opacity="0.3"/>
<rect x="0.5" y="0.5" width="148" height="45" rx="22.5" stroke="url(#paint0_linear_445_307)"/>
<path d="M17.312 10.6H21.728L25.152 24.008H25.216V10.6H28.352V33H24.736L20.512 16.648H20.448V33H17.312V10.6ZM30.9683 10.6H40.5683V13.8H34.4883V19.72H39.3203V22.92H34.4883V29.8H40.5683V33H30.9683V10.6ZM45.7598 21.544L41.8878 10.6H45.5998L47.9678 17.832H48.0318L50.4638 10.6H53.7918L49.9198 21.544L53.9838 33H50.2718L47.7118 25.192H47.6478L45.0238 33H41.6958L45.7598 21.544ZM58.4078 13.8H54.7278V10.6H65.6078V13.8H61.9278V33H58.4078V13.8ZM77.013 33.32C75.3063 33.32 74.0157 32.84 73.141 31.88C72.2663 30.8987 71.829 29.5013 71.829 27.688V26.408H75.157V27.944C75.157 29.3947 75.765 30.12 76.981 30.12C77.5783 30.12 78.0263 29.9493 78.325 29.608C78.645 29.2453 78.805 28.6693 78.805 27.88C78.805 26.9413 78.5917 26.12 78.165 25.416C77.7383 24.6907 76.949 23.8267 75.797 22.824C74.3463 21.544 73.333 20.392 72.757 19.368C72.181 18.3227 71.893 17.1493 71.893 15.848C71.893 14.0773 72.341 12.712 73.237 11.752C74.133 10.7707 75.4343 10.28 77.141 10.28C78.8263 10.28 80.0957 10.7707 80.949 11.752C81.8237 12.712 82.261 14.0987 82.261 15.912V16.84H78.933V15.688C78.933 14.92 78.7837 14.3653 78.485 14.024C78.1863 13.6613 77.749 13.48 77.173 13.48C75.9997 13.48 75.413 14.1947 75.413 15.624C75.413 16.4347 75.6263 17.192 76.053 17.896C76.501 18.6 77.301 19.4533 78.453 20.456C79.925 21.736 80.9383 22.8987 81.493 23.944C82.0477 24.9893 82.325 26.216 82.325 27.624C82.325 29.4587 81.8663 30.8667 80.949 31.848C80.053 32.8293 78.741 33.32 77.013 33.32ZM89.3033 33.32C87.6179 33.32 86.3273 32.84 85.4313 31.88C84.5566 30.92 84.1193 29.5653 84.1193 27.816V15.784C84.1193 14.0347 84.5566 12.68 85.4313 11.72C86.3273 10.76 87.6179 10.28 89.3033 10.28C90.9886 10.28 92.2686 10.76 93.1433 11.72C94.0393 12.68 94.4873 14.0347 94.4873 15.784V18.152H91.1593V15.56C91.1593 14.1733 90.5726 13.48 89.3993 13.48C88.2259 13.48 87.6393 14.1733 87.6393 15.56V28.072C87.6393 29.4373 88.2259 30.12 89.3993 30.12C90.5726 30.12 91.1593 29.4373 91.1593 28.072V24.648H94.4873V27.816C94.4873 29.5653 94.0393 30.92 93.1433 31.88C92.2686 32.84 90.9886 33.32 89.3033 33.32ZM96.5933 10.6H106.193V13.8H100.113V19.72H104.945V22.92H100.113V29.8H106.193V33H96.5933V10.6ZM108.218 10.6H112.634L116.058 24.008H116.122V10.6H119.258V33H115.642L111.418 16.648H111.354V33H108.218V10.6ZM121.875 10.6H131.475V13.8H125.395V19.72H130.227V22.92H125.395V29.8H131.475V33H121.875V10.6Z" fill="#EBEBF5" fill-opacity="0.6"/>
<defs>
<linearGradient id="paint0_linear_445_307" x1="0.435673" y1="-21.7679" x2="13.2361" y2="83.5666" gradientUnits="userSpaceOnUse">
<stop stop-color="#EBF2F4" stop-opacity="0.4"/>
<stop offset="0.41" stop-color="#EBF2F4" stop-opacity="0"/>
<stop offset="0.57" stop-color="#EBF2F4" stop-opacity="0"/>
<stop offset="1" stop-color="#EBF2F4" stop-opacity="0.1"/>
</linearGradient>
</defs>
</svg>
