<svg width="133" height="46" viewBox="0 0 133 46" fill="none" xmlns="http://www.w3.org/2000/svg">
<rect x="0.5" y="0.5" width="132" height="45" rx="22.5" fill="#EBF2F4" fill-opacity="0.3"/>
<rect x="0.5" y="0.5" width="132" height="45" rx="22.5" stroke="url(#paint0_linear_345_14)"/>
<path d="M21.888 33.32C20.1813 33.32 18.8907 32.84 18.016 31.88C17.1413 30.8987 16.704 29.5013 16.704 27.688V26.408H20.032V27.944C20.032 29.3947 20.64 30.12 21.856 30.12C22.4533 30.12 22.9013 29.9493 23.2 29.608C23.52 29.2453 23.68 28.6693 23.68 27.88C23.68 26.9413 23.4667 26.12 23.04 25.416C22.6133 24.6907 21.824 23.8267 20.672 22.824C19.2213 21.544 18.208 20.392 17.632 19.368C17.056 18.3227 16.768 17.1493 16.768 15.848C16.768 14.0773 17.216 12.712 18.112 11.752C19.008 10.7707 20.3093 10.28 22.016 10.28C23.7013 10.28 24.9707 10.7707 25.824 11.752C26.6987 12.712 27.136 14.0987 27.136 15.912V16.84H23.808V15.688C23.808 14.92 23.6587 14.3653 23.36 14.024C23.0613 13.6613 22.624 13.48 22.048 13.48C20.8747 13.48 20.288 14.1947 20.288 15.624C20.288 16.4347 20.5013 17.192 20.928 17.896C21.376 18.6 22.176 19.4533 23.328 20.456C24.8 21.736 25.8133 22.8987 26.368 23.944C26.9227 24.9893 27.2 26.216 27.2 27.624C27.2 29.4587 26.7413 30.8667 25.824 31.848C24.928 32.8293 23.616 33.32 21.888 33.32ZM34.3383 33.32C32.6316 33.32 31.3303 32.84 30.4343 31.88C29.5383 30.8987 29.0903 29.5013 29.0903 27.688V10.6H32.6102V27.944C32.6102 28.712 32.7596 29.2667 33.0583 29.608C33.3783 29.9493 33.8263 30.12 34.4023 30.12C34.9783 30.12 35.4156 29.9493 35.7143 29.608C36.0343 29.2667 36.1943 28.712 36.1943 27.944V10.6H39.5863V27.688C39.5863 29.5013 39.1383 30.8987 38.2423 31.88C37.3463 32.84 36.0449 33.32 34.3383 33.32ZM42.0933 10.6H47.3093C49.1226 10.6 50.4453 11.0267 51.2773 11.88C52.1093 12.712 52.5253 14.0027 52.5253 15.752V17.128C52.5253 19.4533 51.7573 20.9253 50.2213 21.544V21.608C51.0746 21.864 51.6719 22.3867 52.0133 23.176C52.3759 23.9653 52.5573 25.0213 52.5573 26.344V30.28C52.5573 30.92 52.5786 31.4427 52.6213 31.848C52.6639 32.232 52.7706 32.616 52.9413 33H49.3573C49.2293 32.6373 49.1439 32.296 49.1013 31.976C49.0586 31.656 49.0373 31.08 49.0373 30.248V26.152C49.0373 25.128 48.8666 24.4133 48.5253 24.008C48.2053 23.6027 47.6399 23.4 46.8293 23.4H45.6133V33H42.0933V10.6ZM46.8933 20.2C47.5973 20.2 48.1199 20.0187 48.4613 19.656C48.8239 19.2933 49.0052 18.6853 49.0052 17.832V16.104C49.0052 15.2933 48.8559 14.7067 48.5573 14.344C48.2799 13.9813 47.8319 13.8 47.2133 13.8H45.6133V20.2H46.8933ZM54.9995 10.6H64.5995V13.8H58.5195V19.72H63.3515V22.92H58.5195V29.8H64.5995V33H54.9995V10.6ZM66.6245 10.6H71.0405L74.4645 24.008H74.5285V10.6H77.6645V33H74.0485L69.8245 16.648H69.7605V33H66.6245V10.6ZM80.2808 10.6H85.6568C87.4061 10.6 88.7181 11.0693 89.5928 12.008C90.4674 12.9467 90.9048 14.3227 90.9048 16.136V27.464C90.9048 29.2773 90.4674 30.6533 89.5928 31.592C88.7181 32.5307 87.4061 33 85.6568 33H80.2808V10.6ZM85.5928 29.8C86.1688 29.8 86.6061 29.6293 86.9048 29.288C87.2248 28.9467 87.3848 28.392 87.3848 27.624V15.976C87.3848 15.208 87.2248 14.6533 86.9048 14.312C86.6061 13.9707 86.1688 13.8 85.5928 13.8H83.8008V29.8H85.5928ZM93.2808 10.6H102.881V13.8H96.8008V19.72H101.633V22.92H96.8008V29.8H102.881V33H93.2808V10.6ZM104.906 10.6H110.122C111.935 10.6 113.258 11.0267 114.09 11.88C114.922 12.712 115.338 14.0027 115.338 15.752V17.128C115.338 19.4533 114.57 20.9253 113.034 21.544V21.608C113.887 21.864 114.484 22.3867 114.826 23.176C115.188 23.9653 115.37 25.0213 115.37 26.344V30.28C115.37 30.92 115.391 31.4427 115.434 31.848C115.476 32.232 115.583 32.616 115.754 33H112.17C112.042 32.6373 111.956 32.296 111.914 31.976C111.871 31.656 111.85 31.08 111.85 30.248V26.152C111.85 25.128 111.679 24.4133 111.338 24.008C111.018 23.6027 110.452 23.4 109.642 23.4H108.426V33H104.906V10.6ZM109.706 20.2C110.41 20.2 110.932 20.0187 111.274 19.656C111.636 19.2933 111.818 18.6853 111.818 17.832V16.104C111.818 15.2933 111.668 14.7067 111.37 14.344C111.092 13.9813 110.644 13.8 110.026 13.8H108.426V20.2H109.706Z" fill="#EBEBF5" fill-opacity="0.6"/>
<defs>
<linearGradient id="paint0_linear_345_14" x1="0.38889" y1="-21.7679" x2="14.6762" y2="83.1771" gradientUnits="userSpaceOnUse">
<stop stop-color="#EBF2F4" stop-opacity="0.4"/>
<stop offset="0.41" stop-color="#EBF2F4" stop-opacity="0"/>
<stop offset="0.57" stop-color="#EBF2F4" stop-opacity="0"/>
<stop offset="1" stop-color="#EBF2F4" stop-opacity="0.1"/>
</linearGradient>
</defs>
</svg>
