<svg width="196" height="88" viewBox="0 0 196 88" fill="none" xmlns="http://www.w3.org/2000/svg">
<g filter="url(#filter0_dii_589_650)">
<rect x="24" y="24" width="148" height="40" rx="20" fill="#EBF2F4" shape-rendering="crispEdges"/>
<path d="M79.984 34.7H83.296L85.864 44.756H85.912V34.7H88.264V51.5H85.552L82.384 39.236H82.336V51.5H79.984V34.7ZM90.2262 34.7H97.4262V37.1H92.8662V41.54H96.4902V43.94H92.8662V49.1H97.4262V51.5H90.2262V34.7ZM101.32 42.908L98.4158 34.7H101.2L102.976 40.124H103.024L104.848 34.7H107.344L104.44 42.908L107.488 51.5H104.704L102.784 45.644H102.736L100.768 51.5H98.2718L101.32 42.908ZM110.806 37.1H108.046V34.7H116.206V37.1H113.446V51.5L110.806 51.5V37.1Z" fill="black"/>
</g>
<defs>
<filter id="filter0_dii_589_650" x="0" y="0" width="196" height="88" filterUnits="userSpaceOnUse" color-interpolation-filters="sRGB">
<feFlood flood-opacity="0" result="BackgroundImageFix"/>
<feColorMatrix in="SourceAlpha" type="matrix" values="0 0 0 0 0 0 0 0 0 0 0 0 0 0 0 0 0 0 127 0" result="hardAlpha"/>
<feOffset/>
<feGaussianBlur stdDeviation="12"/>
<feComposite in2="hardAlpha" operator="out"/>
<feColorMatrix type="matrix" values="0 0 0 0 0.858824 0 0 0 0 0.694118 0 0 0 0 0.694118 0 0 0 1 0"/>
<feBlend mode="normal" in2="BackgroundImageFix" result="effect1_dropShadow_589_650"/>
<feBlend mode="normal" in="SourceGraphic" in2="effect1_dropShadow_589_650" result="shape"/>
<feColorMatrix in="SourceAlpha" type="matrix" values="0 0 0 0 0 0 0 0 0 0 0 0 0 0 0 0 0 0 127 0" result="hardAlpha"/>
<feOffset dx="3" dy="3"/>
<feGaussianBlur stdDeviation="2.5"/>
<feComposite in2="hardAlpha" operator="arithmetic" k2="-1" k3="1"/>
<feColorMatrix type="matrix" values="0 0 0 0 0.909804 0 0 0 0 0.913725 0 0 0 0 0.941176 0 0 0 0.25 0"/>
<feBlend mode="normal" in2="shape" result="effect2_innerShadow_589_650"/>
<feColorMatrix in="SourceAlpha" type="matrix" values="0 0 0 0 0 0 0 0 0 0 0 0 0 0 0 0 0 0 127 0" result="hardAlpha"/>
<feOffset dx="-3" dy="-3"/>
<feGaussianBlur stdDeviation="2"/>
<feComposite in2="hardAlpha" operator="arithmetic" k2="-1" k3="1"/>
<feColorMatrix type="matrix" values="0 0 0 0 0 0 0 0 0 0 0 0 0 0 0 0 0 0 0.12 0"/>
<feBlend mode="normal" in2="effect2_innerShadow_589_650" result="effect3_innerShadow_589_650"/>
</filter>
</defs>
</svg>
