<svg width="120" height="37" viewBox="0 0 120 37" fill="none" xmlns="http://www.w3.org/2000/svg">
<rect x="0.5" y="0.5" width="119" height="36" rx="18" fill="#EBF2F4" fill-opacity="0.3"/>
<rect x="0.5" y="0.5" width="119" height="36" rx="18" stroke="url(#paint0_linear_601_655)"/>
<path d="M26.416 26.24C25.136 26.24 24.168 25.88 23.512 25.16C22.856 24.424 22.528 23.376 22.528 22.016V21.056H25.024V22.208C25.024 23.296 25.48 23.84 26.392 23.84C26.84 23.84 27.176 23.712 27.4 23.456C27.64 23.184 27.76 22.752 27.76 22.16C27.76 21.456 27.6 20.84 27.28 20.312C26.96 19.768 26.368 19.12 25.504 18.368C24.416 17.408 23.656 16.544 23.224 15.776C22.792 14.992 22.576 14.112 22.576 13.136C22.576 11.808 22.912 10.784 23.584 10.064C24.256 9.328 25.232 8.96 26.512 8.96C27.776 8.96 28.728 9.328 29.368 10.064C30.024 10.784 30.352 11.824 30.352 13.184V13.88H27.856V13.016C27.856 12.44 27.744 12.024 27.52 11.768C27.296 11.496 26.968 11.36 26.536 11.36C25.656 11.36 25.216 11.896 25.216 12.968C25.216 13.576 25.376 14.144 25.696 14.672C26.032 15.2 26.632 15.84 27.496 16.592C28.6 17.552 29.36 18.424 29.776 19.208C30.192 19.992 30.4 20.912 30.4 21.968C30.4 23.344 30.056 24.4 29.368 25.136C28.696 25.872 27.712 26.24 26.416 26.24ZM35.7537 26.24C34.4737 26.24 33.4977 25.88 32.8257 25.16C32.1537 24.424 31.8177 23.376 31.8177 22.016V9.2H34.4577V22.208C34.4577 22.784 34.5697 23.2 34.7937 23.456C35.0337 23.712 35.3697 23.84 35.8017 23.84C36.2337 23.84 36.5617 23.712 36.7857 23.456C37.0257 23.2 37.1457 22.784 37.1457 22.208V9.2H39.6897V22.016C39.6897 23.376 39.3537 24.424 38.6817 25.16C38.0097 25.88 37.0337 26.24 35.7537 26.24ZM41.5699 9.2H45.4819C46.8419 9.2 47.8339 9.52 48.4579 10.16C49.0819 10.784 49.3939 11.752 49.3939 13.064V14.096C49.3939 15.84 48.8179 16.944 47.6659 17.408V17.456C48.3059 17.648 48.7539 18.04 49.0099 18.632C49.2819 19.224 49.4179 20.016 49.4179 21.008V23.96C49.4179 24.44 49.4339 24.832 49.4659 25.136C49.4979 25.424 49.5779 25.712 49.7059 26H47.0179C46.9219 25.728 46.8579 25.472 46.8259 25.232C46.7939 24.992 46.7779 24.56 46.7779 23.936V20.864C46.7779 20.096 46.6499 19.56 46.3939 19.256C46.1539 18.952 45.7299 18.8 45.1219 18.8H44.2099V26H41.5699V9.2ZM45.1699 16.4C45.6979 16.4 46.0899 16.264 46.3459 15.992C46.6179 15.72 46.7539 15.264 46.7539 14.624V13.328C46.7539 12.72 46.6419 12.28 46.4179 12.008C46.2099 11.736 45.8739 11.6 45.4099 11.6H44.2099V16.4H45.1699ZM51.2496 9.2H58.4496V11.6H53.8896V16.04H57.5136V18.44H53.8896V23.6H58.4496V26H51.2496V9.2ZM59.9684 9.2H63.2804L65.8484 19.256H65.8964V9.2H68.2484V26H65.5364L62.3684 13.736H62.3204V26H59.9684V9.2ZM70.2106 9.2H74.2426C75.5546 9.2 76.5386 9.552 77.1946 10.256C77.8506 10.96 78.1786 11.992 78.1786 13.352V21.848C78.1786 23.208 77.8506 24.24 77.1946 24.944C76.5386 25.648 75.5546 26 74.2426 26H70.2106V9.2ZM74.1946 23.6C74.6266 23.6 74.9546 23.472 75.1786 23.216C75.4186 22.96 75.5386 22.544 75.5386 21.968V13.232C75.5386 12.656 75.4186 12.24 75.1786 11.984C74.9546 11.728 74.6266 11.6 74.1946 11.6H72.8506V23.6H74.1946ZM79.9606 9.2H87.1606V11.6H82.6006V16.04H86.2246V18.44H82.6006V23.6H87.1606V26H79.9606V9.2ZM88.6793 9.2H92.5913C93.9513 9.2 94.9433 9.52 95.5673 10.16C96.1913 10.784 96.5033 11.752 96.5033 13.064V14.096C96.5033 15.84 95.9273 16.944 94.7753 17.408V17.456C95.4153 17.648 95.8633 18.04 96.1193 18.632C96.3913 19.224 96.5273 20.016 96.5273 21.008V23.96C96.5273 24.44 96.5433 24.832 96.5753 25.136C96.6073 25.424 96.6873 25.712 96.8153 26H94.1273C94.0313 25.728 93.9673 25.472 93.9353 25.232C93.9033 24.992 93.8873 24.56 93.8873 23.936V20.864C93.8873 20.096 93.7593 19.56 93.5033 19.256C93.2633 18.952 92.8393 18.8 92.2313 18.8H91.3193V26H88.6793V9.2ZM92.2793 16.4C92.8073 16.4 93.1993 16.264 93.4553 15.992C93.7273 15.72 93.8633 15.264 93.8633 14.624V13.328C93.8633 12.72 93.7513 12.28 93.5273 12.008C93.3193 11.736 92.9833 11.6 92.5193 11.6H91.3193V16.4H92.2793Z" fill="#EBEBF5" fill-opacity="0.6"/>
<defs>
<linearGradient id="paint0_linear_601_655" x1="0.350878" y1="-17.5089" x2="10.6342" y2="67.2197" gradientUnits="userSpaceOnUse">
<stop stop-color="#EBF2F4" stop-opacity="0.4"/>
<stop offset="0.41" stop-color="#EBF2F4" stop-opacity="0"/>
<stop offset="0.57" stop-color="#EBF2F4" stop-opacity="0"/>
<stop offset="1" stop-color="#EBF2F4" stop-opacity="0.1"/>
</linearGradient>
</defs>
</svg>
