<svg width="220" height="104" viewBox="0 0 220 104" fill="none" xmlns="http://www.w3.org/2000/svg">
<g filter="url(#filter0_dii_103_26)">
<rect x="24.5" y="24" width="171" height="56" rx="28" fill="#EBF2F4" fill-opacity="0.16" shape-rendering="crispEdges"/>
<rect x="25" y="24.5" width="170" height="55" rx="27.5" stroke="#EBF2F4" shape-rendering="crispEdges"/>
<path d="M84.64 36H96.64V40H89.04V47.4H95.08V51.4H89.04V60H96.64V64H84.64V36ZM103.129 49.68L98.2894 36H102.929L105.889 45.04H105.969L109.009 36H113.169L108.329 49.68L113.409 64H108.769L105.569 54.24H105.489L102.209 64H98.0494L103.129 49.68ZM115.499 36H119.899V64H115.499V36ZM126.635 40H122.035V36H135.635V40H131.035V64H126.635V40Z" fill="#EBF2F4"/>
</g>
<defs>
<filter id="filter0_dii_103_26" x="0.5" y="0" width="219" height="104" filterUnits="userSpaceOnUse" color-interpolation-filters="sRGB">
<feFlood flood-opacity="0" result="BackgroundImageFix"/>
<feColorMatrix in="SourceAlpha" type="matrix" values="0 0 0 0 0 0 0 0 0 0 0 0 0 0 0 0 0 0 127 0" result="hardAlpha"/>
<feOffset/>
<feGaussianBlur stdDeviation="12"/>
<feComposite in2="hardAlpha" operator="out"/>
<feColorMatrix type="matrix" values="0 0 0 0 0.858824 0 0 0 0 0.694118 0 0 0 0 0.694118 0 0 0 1 0"/>
<feBlend mode="normal" in2="BackgroundImageFix" result="effect1_dropShadow_103_26"/>
<feBlend mode="normal" in="SourceGraphic" in2="effect1_dropShadow_103_26" result="shape"/>
<feColorMatrix in="SourceAlpha" type="matrix" values="0 0 0 0 0 0 0 0 0 0 0 0 0 0 0 0 0 0 127 0" result="hardAlpha"/>
<feOffset dx="3" dy="3"/>
<feGaussianBlur stdDeviation="2.5"/>
<feComposite in2="hardAlpha" operator="arithmetic" k2="-1" k3="1"/>
<feColorMatrix type="matrix" values="0 0 0 0 0.909804 0 0 0 0 0.913725 0 0 0 0 0.941176 0 0 0 0.25 0"/>
<feBlend mode="normal" in2="shape" result="effect2_innerShadow_103_26"/>
<feColorMatrix in="SourceAlpha" type="matrix" values="0 0 0 0 0 0 0 0 0 0 0 0 0 0 0 0 0 0 127 0" result="hardAlpha"/>
<feOffset dx="-3" dy="-3"/>
<feGaussianBlur stdDeviation="2"/>
<feComposite in2="hardAlpha" operator="arithmetic" k2="-1" k3="1"/>
<feColorMatrix type="matrix" values="0 0 0 0 0 0 0 0 0 0 0 0 0 0 0 0 0 0 0.12 0"/>
<feBlend mode="normal" in2="effect2_innerShadow_103_26" result="effect3_innerShadow_103_26"/>
</filter>
</defs>
</svg>
