<svg width="98" height="26" viewBox="0 0 98 26" fill="none" xmlns="http://www.w3.org/2000/svg">
<path d="M97.8112 13.2653C97.9271 13.6077 97.9403 13.9849 97.8508 14.3968C97.7612 14.8088 97.706 15.2091 97.6849 15.5979C97.2605 17.726 96.2966 19.3881 94.7933 20.5839C93.1983 21.7345 91.4763 22.6227 89.6274 23.2486C87.0252 24.1296 84.3187 24.7023 81.5079 24.967C78.6971 25.2316 75.8973 25.4161 73.1086 25.5206C67.3943 25.7759 61.7462 25.5508 56.1646 24.8453C50.5144 24.163 44.9195 23.0803 39.3799 21.5973C38.4644 21.3729 37.5831 21.137 36.736 20.8895C35.8658 20.5735 34.9956 20.2575 34.1253 19.9415C33.2551 19.6254 32.3964 19.3437 31.5494 19.0961C30.6338 18.8718 29.7868 18.6243 29.0082 18.3536L26.6724 17.5414C26.3058 17.3603 25.9508 17.2133 25.6073 17.1006C25.1954 17.0111 24.8177 16.91 24.4742 16.7973C24.017 16.7994 23.6856 16.8352 23.4802 16.9048C23.2979 17.0428 23.0014 17.1814 22.5905 17.3205C21.9057 17.5523 20.9675 17.3738 19.776 16.7849C19.226 16.5131 18.7677 16.2867 18.401 16.1055C17.9427 15.879 17.5419 15.7094 17.1984 15.5967C16.58 15.3481 15.9389 15.1453 15.2751 14.9884C14.5882 14.763 13.9129 14.5718 13.2491 14.4149C12.5854 14.2579 11.9217 14.101 11.2579 13.9441C10.571 13.7187 9.92992 13.5159 9.33466 13.3358C8.62455 13.0419 7.91445 12.748 7.20435 12.4541C6.42577 12.1834 5.71567 11.8895 5.07404 11.5724C4.36394 11.2785 3.66543 11.0189 2.97851 10.7935C2.26841 10.4996 1.51301 10.2973 0.712314 10.1868C0.592132 8.92992 0.563074 7.60404 0.625142 6.20916C0.687213 4.81427 0.955786 3.57845 1.43086 2.50171C1.88276 1.35649 2.75925 0.563643 4.06034 0.123182C4.53969 -0.0390923 5.12282 -0.00752297 5.80974 0.21789C7.80309 1.14593 9.76274 2.19987 11.6887 3.3797C12.6748 4.0381 13.672 4.61643 14.6803 5.11469C15.6886 5.61295 16.6852 6.07697 17.6703 6.50675C20.7172 7.84138 24.2667 9.08222 28.3187 10.2293C32.3022 11.3995 36.342 12.398 40.4382 13.2248C44.5344 14.0515 48.2408 14.6286 51.5573 14.9561L52.553 15.1915L53.3447 15.8393L52.7284 16.048L51.9399 16.0859C52.7637 16.265 53.576 16.4098 54.3767 16.5204C55.1774 16.6309 56.0123 16.7299 56.8815 16.8173L62.0286 17.4791C63.4699 17.6782 64.9454 17.8656 66.4551 18.0414C67.9416 18.1488 69.4276 18.1419 70.9131 18.0206C71.1417 18.0195 71.393 17.9726 71.6669 17.8799C72.0093 17.764 72.2948 17.7055 72.5234 17.7044C72.9343 17.5654 73.2209 17.7355 73.3831 18.2148C73.4759 18.4887 73.3853 18.6721 73.1114 18.7648C72.0842 19.1125 70.9301 19.1979 69.6489 19.021C69.7406 19.0663 69.8665 19.1 70.0266 19.1221C70.1183 19.1674 70.2216 19.247 70.3364 19.3607C70.1088 19.5904 69.9608 19.7169 69.8924 19.74L69.7896 19.7748C68.8994 20.0762 67.9286 20.2522 66.8772 20.3028C67.3355 20.5293 67.7474 20.6188 68.113 20.5714C68.6387 20.5461 69.2102 20.5434 69.8276 20.5634C70.3533 20.5381 70.9365 20.5696 71.577 20.6581C72.1491 20.7697 72.7322 20.8013 73.3264 20.7528C73.8521 20.7275 74.3778 20.7022 74.9036 20.6768L78.5019 20.1456C79.0729 20.0287 79.6897 19.9343 80.3524 19.8626C80.9466 19.8141 81.5408 19.7656 82.135 19.7171C84.0998 19.4336 85.904 19.0137 87.5474 18.4573C87.6844 18.4109 87.8556 18.353 88.061 18.2834C88.2665 18.2139 88.4603 18.1101 88.6426 17.9721C88.8248 17.834 89.0187 17.7303 89.2241 17.6607C89.4295 17.5912 89.6576 17.4758 89.9083 17.3146L90.9339 16.6239C91.0477 16.5091 91.2073 16.4169 91.4127 16.3473C91.6182 16.2778 91.7778 16.1856 91.8915 16.0708C91.5028 16.0497 91.193 15.8111 90.9623 15.3549L91.4759 15.1811C91.6571 14.8144 91.8272 14.5279 91.9863 14.3214C92.1221 14.0464 92.1321 13.7377 92.0162 13.3953C91.6917 12.4366 90.9104 11.5943 89.6725 10.8685C88.4345 10.1427 87.0828 9.53176 85.6173 9.03563C84.1518 8.53951 82.9729 8.21353 82.0805 8.05766C81.6454 7.89966 81.2103 7.74165 80.7751 7.58365C80.34 7.42565 79.9391 7.25605 79.5725 7.07487C79.1827 6.8252 78.7818 6.65561 78.3698 6.56609C77.9347 6.40808 77.4996 6.25008 77.0645 6.09208C74.3863 5.39586 71.7772 4.79077 69.2371 4.27681C68.9168 4.23258 68.6308 4.17676 68.379 4.10935C68.1272 4.04194 67.9096 3.96294 67.7263 3.87234L66.6264 3.32879C66.0764 3.05701 65.7783 2.85264 65.7319 2.71569C65.6624 2.51025 65.7645 2.36117 66.0385 2.26844C66.1069 2.24526 66.61 2.26577 67.5477 2.32998C68.4853 2.39418 69.1717 2.50529 69.6068 2.66329L69.6747 2.5258C71.0254 2.90815 72.3645 3.25626 73.692 3.57013C75.0194 3.884 76.358 4.1178 77.7076 4.27152C79.0571 4.42526 80.3957 4.65905 81.7232 4.97292C83.0274 5.21831 84.3549 5.53218 85.7056 5.91453C86.9646 6.25158 88.3263 6.55386 89.7907 6.82136C91.1867 7.11205 92.4689 7.51758 93.6373 8.03796C94.851 8.46667 95.7692 9.26255 96.3919 10.4256C96.5067 10.5394 96.5989 10.699 96.6685 10.9044C96.738 11.1099 96.796 11.2811 96.8423 11.418L97.1901 12.4452C97.4882 12.6496 97.6953 12.9229 97.8112 13.2653ZM54.9379 19.1926C54.5712 19.0115 54.2278 18.8987 53.9075 18.8545C53.4956 18.765 53.0952 18.7097 52.7065 18.6887C52.1112 18.5085 51.5275 18.3627 50.9555 18.251C50.3834 18.1394 49.8113 18.0278 49.2392 17.9161L49.2045 17.8134L48.7588 17.8498C48.8284 18.0552 49.2292 18.2248 49.9615 18.3585C50.3502 18.3796 50.739 18.4006 51.1277 18.4217C51.448 18.4659 51.7683 18.5101 52.0886 18.5544L53.9423 18.9572L54.9379 19.1926ZM62.2137 20.3932C63.656 20.8208 65.062 20.8028 66.4315 20.3392C64.9229 20.392 63.4932 20.2272 62.1425 19.8448L60.0138 19.3061C59.4418 19.1945 58.7217 19.2092 57.8536 19.3505L57.7856 19.488C59.3185 19.7323 60.7946 20.034 62.2137 20.3932ZM68.3452 18.8899C68.0249 18.8457 67.8648 18.8236 67.8648 18.8236C66.9956 18.7362 66.1838 18.7057 65.4295 18.7321C64.652 18.69 63.9093 18.7506 63.2013 18.914C63.8408 18.7738 64.7552 18.7695 65.9447 18.9012C66.9972 19.0791 67.7973 19.0754 68.3452 18.8899Z" fill="#7E0303"/>
</svg>
