<svg width="120" height="37" viewBox="0 0 120 37" fill="none" xmlns="http://www.w3.org/2000/svg">
<rect x="0.5" y="0.5" width="119" height="36" rx="18" fill="#EBF2F4" fill-opacity="0.3"/>
<rect x="0.5" y="0.5" width="119" height="36" rx="18" stroke="url(#paint0_linear_601_658)"/>
<path d="M16.984 9.2H20.296L22.864 19.256H22.912V9.2H25.264V26H22.552L19.384 13.736H19.336V26H16.984V9.2ZM27.2262 9.2H34.4262V11.6H29.8662V16.04H33.4902V18.44H29.8662V23.6H34.4262V26H27.2262V9.2ZM38.3198 17.408L35.4158 9.2H38.1998L39.9758 14.624H40.0238L41.8478 9.2H44.3438L41.4398 17.408L44.4878 26H41.7038L39.7838 20.144H39.7358L37.7678 26H35.2718L38.3198 17.408ZM47.8058 11.6H45.0458V9.2H53.2058V11.6H50.4458V26H47.8058V11.6ZM61.7598 26.24C60.4798 26.24 59.5118 25.88 58.8558 25.16C58.1998 24.424 57.8718 23.376 57.8718 22.016V21.056H60.3678V22.208C60.3678 23.296 60.8238 23.84 61.7358 23.84C62.1838 23.84 62.5198 23.712 62.7438 23.456C62.9838 23.184 63.1038 22.752 63.1038 22.16C63.1038 21.456 62.9438 20.84 62.6238 20.312C62.3038 19.768 61.7118 19.12 60.8478 18.368C59.7598 17.408 58.9998 16.544 58.5678 15.776C58.1358 14.992 57.9198 14.112 57.9198 13.136C57.9198 11.808 58.2558 10.784 58.9277 10.064C59.5998 9.328 60.5758 8.96 61.8558 8.96C63.1198 8.96 64.0718 9.328 64.7118 10.064C65.3678 10.784 65.6958 11.824 65.6958 13.184V13.88H63.1998V13.016C63.1998 12.44 63.0878 12.024 62.8638 11.768C62.6398 11.496 62.3118 11.36 61.8798 11.36C60.9998 11.36 60.5598 11.896 60.5598 12.968C60.5598 13.576 60.7198 14.144 61.0398 14.672C61.3758 15.2 61.9758 15.84 62.8398 16.592C63.9438 17.552 64.7038 18.424 65.1198 19.208C65.5358 19.992 65.7438 20.912 65.7438 21.968C65.7438 23.344 65.3998 24.4 64.7118 25.136C64.0398 25.872 63.0558 26.24 61.7598 26.24ZM70.9774 26.24C69.7134 26.24 68.7454 25.88 68.0734 25.16C67.4174 24.44 67.0894 23.424 67.0894 22.112V13.088C67.0894 11.776 67.4174 10.76 68.0734 10.04C68.7454 9.32 69.7134 8.96 70.9774 8.96C72.2414 8.96 73.2014 9.32 73.8574 10.04C74.5294 10.76 74.8654 11.776 74.8654 13.088V14.864H72.3694V12.92C72.3694 11.88 71.9294 11.36 71.0494 11.36C70.1694 11.36 69.7294 11.88 69.7294 12.92V22.304C69.7294 23.328 70.1694 23.84 71.0494 23.84C71.9294 23.84 72.3694 23.328 72.3694 22.304V19.736H74.8654V22.112C74.8654 23.424 74.5294 24.44 73.8574 25.16C73.2014 25.88 72.2414 26.24 70.9774 26.24ZM76.4449 9.2H83.6449V11.6H79.0849V16.04H82.7089V18.44H79.0849V23.6H83.6449V26H76.4449V9.2ZM85.1637 9.2H88.4757L91.0437 19.256H91.0917V9.2H93.4437V26H90.7317L87.5637 13.736H87.5157V26H85.1637V9.2ZM95.4059 9.2H102.606V11.6H98.0459V16.04H101.67V18.44H98.0459V23.6H102.606V26H95.4059V9.2Z" fill="#EBEBF5" fill-opacity="0.6"/>
<defs>
<linearGradient id="paint0_linear_601_658" x1="0.350878" y1="-17.5089" x2="10.6342" y2="67.2197" gradientUnits="userSpaceOnUse">
<stop stop-color="#EBF2F4" stop-opacity="0.4"/>
<stop offset="0.41" stop-color="#EBF2F4" stop-opacity="0"/>
<stop offset="0.57" stop-color="#EBF2F4" stop-opacity="0"/>
<stop offset="1" stop-color="#EBF2F4" stop-opacity="0.1"/>
</linearGradient>
</defs>
</svg>
